<svg xmlns="http://www.w3.org/2000/svg" viewBox="0 0 600 468" width="600" height="468" role="img" aria-label="Certifications: CalArts Graphic Design and Brand Development, Google Project Management, Anthropic, Oracle Next Education Full Stack, Harvard CS50 in progress">
<style>.t{font-family:'JetBrains Mono','SFMono-Regular',Menlo,Consolas,monospace}
.big{font-family:'Space Grotesk','Helvetica Neue',Arial,sans-serif;font-weight:700}
.tile{opacity:0;animation:in .6s ease-out forwards}
@keyframes in{from{opacity:0;transform:translateY(8px)}to{opacity:1;transform:none}}
.cur{animation:blink 1s steps(1) infinite}@keyframes blink{50%{opacity:0}}</style>
<rect width="600" height="468" fill="#141518"/>
<text x="20" y="28" class="t" font-size="13" fill="#6b6f7a">/ CERTIFICATIONS</text>
<g class="tile" style="animation-delay:0.10s">
<rect x="20.0" y="44" width="178.7" height="196" fill="#1c1e23"/><rect x="20.0" y="44" width="178.7" height="7" fill="#E5352B"/>
<svg x="34.3" y="80.0" width="150" height="22" viewBox="0 0 300.0 43.879047" preserveAspectRatio="xMidYMid meet"><g transform="translate(-225,-510.42265)" fill="#FFFFFF">
    <path d="m 486.13618,513.88763 c 0,1.59201 -1.35789,2.90307 -2.9499,2.90307 0,0 -8.75604,0 -10.06711,0 0,1.49836 0,34.41547 0,34.41547 0,0.79601 -0.32777,1.59201 -0.93648,2.1539 -0.6087,0.56188 -1.31106,0.88965 -2.15389,0.88965 -1.63883,0 -3.04355,-1.35789 -3.04355,-3.04355 0,0 0,-32.91711 0,-34.41547 -1.35788,0 -10.11393,0 -10.11393,0 -1.592,0 -2.85625,-1.26424 -2.85625,-2.90307 0,-1.59201 1.26425,-2.90308 2.9499,-2.85625 l 26.22131,0 C 484.77829,510.98455 486.04253,512.29562 486.13618,513.88763 z m 8.05369,8.75604 c 0,6.32121 4.40143,9.78617 8.10051,10.86312 3.46496,0.9833 5.47839,1.35789 7.35134,1.63883 l 2.52847,0.51506 0.14055,0.0468 c 3.27766,0.65554 6.69581,1.40472 6.36804,6.32121 -0.2808,4.49509 -5.29108,6.50851 -9.833,6.50851 -3.46495,0 -7.67909,-1.49836 -9.73934,-3.51179 -1.21742,-1.21741 -3.13719,-1.21741 -4.30779,0 -0.6087,0.51507 -0.88963,1.31107 -0.88963,2.10707 0,0.84283 0.28093,1.59201 0.88965,2.20072 l 0.14046,0.0936 c 3.04354,2.85625 8.99016,4.86967 14.37489,4.86967 8.84971,0 15.68598,-5.61885 15.68598,-12.87653 0,-7.91322 -5.15062,-10.20759 -9.6457,-11.28453 -2.38802,-0.56189 -3.46496,-0.74918 -4.54192,-0.93648 -1.07693,-0.0937 -2.0134,-0.28094 -4.07365,-0.84283 l -0.14045,0 c -3.23085,-0.796 -6.0871,-1.82612 -6.0871,-5.85297 0,-3.18401 4.02685,-6.36803 8.05369,-6.36803 4.30778,0 6.55533,0.60871 8.89652,2.57531 1.21741,1.03012 3.04355,0.93647 4.07368,-0.1873 0.56188,-0.56188 0.84283,-1.31106 0.84283,-2.01342 0,-0.0468 0,-0.0468 0,-0.14046 -0.0468,-0.796 -0.32776,-1.49836 -0.93648,-2.06024 l -0.51504,-0.37459 0.0935,0.0937 c -3.27755,-2.57533 -6.6957,-3.60545 -11.79948,-3.60545 C 500.93249,510.42267 494.18987,515.90105 494.18987,522.64367 z m -168.42511,-12.221 c -1.68566,0 -3.09037,1.40471 -3.09037,3.09037 0,0 0,40.12797 0,40.12797 l 24.48883,0 c 1.59201,-0.0468 2.9499,-1.35789 2.9499,-2.90307 0,-1.59201 -1.35789,-2.9499 -2.9499,-2.9499 0,0 0.0936,0.0937 0.0936,0.0937 -0.28094,0 -0.56189,-0.0937 -0.93647,-0.0937 0,0 -16.20103,0 -17.51209,0 l 0,-34.275 C 328.8083,511.82738 327.40359,510.42267 325.76476,510.42267 z m -18.02715,38.48914 c 0,0 -0.60871,-0.42141 -0.60871,-0.42141 -0.60871,-0.37459 -1.35789,-1.03013 -1.40472,-2.1539 0,-0.65553 0,-8.14733 0,-14.56219 0,-4.9165 0,-9.27111 0,-9.31793 0,-8.24099 -8.24098,-11.98689 -16.48196,-11.98689 -5.94662,0 -10.25441,1.35789 -13.95349,4.44826 -1.26424,1.1706 -1.40471,3.04355 -0.32777,4.30779 1.03013,1.31106 2.9499,1.40471 4.21415,0.37459 2.85625,-2.48166 5.71249,-3.41814 10.62899,-3.41814 3.83955,0 9.59887,2.01342 9.6457,6.32121 l 0,4.68238 c -0.46824,0.18729 -1.07695,0.37459 -1.07695,0.37459 -2.10707,0.42141 -4.02684,0.51506 -9.97346,0.51506 -8.33463,0 -17.18433,3.37131 -17.18433,12.92336 l 0,0.0468 c 0,7.6791 6.55533,13.25113 15.68597,13.25113 4.91649,0 9.59887,-1.63883 13.43842,-4.5419 1.03012,2.71577 3.37131,3.93319 3.88637,4.16731 1.21742,0.60871 2.66896,0.37459 3.65226,-0.56188 0.51506,-0.60871 0.84283,-1.35789 0.84283,-2.1539 0,-0.0468 0,-0.0468 0,-0.0468 C 308.72091,550.31652 308.34631,549.52052 307.73761,548.91181 z m -8.28781,-5.94662 c -1.9666,2.10707 -5.94662,5.52521 -11.65912,5.52521 -4.77603,0 -10.06711,-2.1539 -10.4417,-6.83627 0,0 0,-0.0937 0,-0.0937 0,-5.1038 3.46496,-7.44498 11.2377,-7.44498 0,0 7.25769,-0.1873 7.25769,-0.1873 C 296.78084,533.88138 298.09191,533.64726 299.4498,533.31949 z m 99.21958,7.07039 c -0.0936,0 -16.71609,-39.0042 -16.71609,-39.0042 l -5.80615,0 -0.14046,0.46824 c -6.32121,14.37489 -16.90338,38.48914 -16.90338,38.53596 -0.70236,1.54519 0.0469,3.37131 1.63883,3.98002 1.49836,0.65553 3.32449,-0.0936 3.9332,-1.59201 0,0 3.65225,-8.56875 4.58872,-10.67582 l 19.24458,0 c 0.37459,0.88965 4.49509,10.67582 4.49509,10.67582 0.6087,1.49836 2.43482,2.29437 3.93318,1.63884 C 398.5289,553.40689 399.27808,551.58077 398.66938,550.03558 z m -27.01733,-14.09396 c 0.796,-1.73247 6.18074,-14.37489 7.30452,-17.04385 C 380.08033,521.56673 385.32459,534.20915 386.07378,535.94162 z m 72.53003,13.62572 -0.14045,-0.14045 c 0,0 -7.96005,-11.14406 -10.25441,-14.51537 5.94662,-1.40472 9.4584,-5.7125 9.4584,-11.79959 0,-8.00687 -5.5252,-12.08054 -16.52879,-12.08054 l -14.28125,0 0,40.22162 c 0,0.88966 0.37459,1.59201 0.93647,2.20072 0.60872,0.56189 1.31107,0.84283 2.20072,0.84283 1.68566,0 2.99672,-1.31107 2.99672,-3.04355 0,-0.23413 0,-0.46823 0,-0.70235 0,0 0,-13.67254 0,-14.98361 l 8.61558,0 c 0.4214,0.70236 11.94005,17.3248 11.94005,17.3248 0.42141,0.70235 1.17058,1.17059 1.9666,1.35789 0.796,0.14045 1.592,0 2.24753,-0.46824 0.84283,-0.56189 1.31107,-1.54519 1.31107,-2.52849 C 444.65032,550.64429 444.55667,550.12923 444.18208,549.56734 z m -17.37161,-19.52551 -8.24099,0 0,-13.25113 8.14734,0 c 6.46167,0 10.39487,1.1706 10.39487,6.6958 C 437.11169,527.98158 433.97449,530.04183 426.81047,530.04183 Z M 225,532.57031 c 0,11.89324 9.87982,21.63259 21.96035,21.67941 5.15061,0 9.78617,-1.59201 13.71936,-4.7292 0,-0.0937 0.0937,-0.14046 0.0937,-0.14046 0.70236,-0.56188 1.07695,-1.40471 1.07695,-2.29436 0,-0.60871 -0.18729,-1.26424 -0.65553,-1.82613 -1.03012,-1.26424 -2.9499,-1.45154 -4.16732,-0.42141 l -0.0937,0.0937 c -2.85625,2.38801 -6.22756,3.5586 -9.97346,3.5586 -8.56875,0 -15.82644,-7.35133 -15.82644,-16.10737 0,-8.8497 7.11722,-16.06056 15.87326,-16.10738 3.79273,0 7.11722,1.26424 9.92664,3.65225 1.26424,1.03012 3.23084,0.88965 4.26097,-0.37459 0.46823,-0.60871 0.796,-1.40471 0.65553,-2.20072 -0.0468,-0.796 -0.42142,-1.45153 -1.03012,-2.01342 -3.9332,-3.23084 -8.61558,-4.86967 -13.81302,-4.86967 C 234.87982,510.56314 225,520.44296 225,532.57031 Z" style="stroke:none" />
  </g>
</svg>
<line x1="34.0" y1="134" x2="184.7" y2="134" stroke="#2a2c33"/>
<text x="34.0" y="164" class="big" font-size="17" fill="#FFFFFF">Graphic Design &amp;</text>
<text x="34.0" y="187" class="big" font-size="17" fill="#FFFFFF">Brand Development</text>
<text x="34.0" y="224" class="t" font-size="11" fill="#9aa0ab">CALARTS · COURSERA</text></g>
<g class="tile" style="animation-delay:0.25s">
<rect x="210.7" y="44" width="178.7" height="196" fill="#1c1e23"/><rect x="210.7" y="44" width="178.7" height="7" fill="#1A3FB0"/>
<svg x="278.0" y="69.0" width="44" height="44" viewBox="0 0 24 24" preserveAspectRatio="xMidYMid meet"><path fill="#FFFFFF" d="M12.48 10.92v3.28h7.84c-.24 1.84-.853 3.187-1.787 4.133-1.147 1.147-2.933 2.4-6.053 2.4-4.827 0-8.6-3.893-8.6-8.72s3.773-8.72 8.6-8.72c2.6 0 4.507 1.027 5.907 2.347l2.307-2.307C18.747 1.44 16.133 0 12.48 0 5.867 0 .307 5.387.307 12s5.56 12 12.173 12c3.573 0 6.267-1.173 8.373-3.36 2.16-2.16 2.84-5.213 2.84-7.667 0-.76-.053-1.467-.173-2.053H12.48z" /></svg>
<line x1="224.7" y1="134" x2="375.3" y2="134" stroke="#2a2c33"/>
<text x="224.7" y="164" class="big" font-size="17" fill="#FFFFFF">Project</text>
<text x="224.7" y="187" class="big" font-size="17" fill="#FFFFFF">Management</text>
<text x="224.7" y="224" class="t" font-size="11" fill="#9aa0ab">GOOGLE · COURSERA</text></g>
<g class="tile" style="animation-delay:0.40s">
<rect x="401.3" y="44" width="178.7" height="196" fill="#1c1e23"/><rect x="401.3" y="44" width="178.7" height="7" fill="#F5C518"/>
<svg x="468.7" y="69.0" width="44" height="44" viewBox="0 0 24 24" preserveAspectRatio="xMidYMid meet"><path fill="#FFFFFF" d="M17.3041 3.541h-3.6718l6.696 16.918H24Zm-10.6082 0L0 20.459h3.7442l1.3693-3.5527h7.0052l1.3693 3.5528h3.7442L10.5363 3.5409Zm-.3712 10.2232 2.2914-5.9456 2.2914 5.9456Z" /></svg>
<line x1="415.3" y1="134" x2="566.0" y2="134" stroke="#2a2c33"/>
<text x="415.3" y="164" class="big" font-size="17" fill="#FFFFFF">Claude &amp;</text>
<text x="415.3" y="187" class="big" font-size="17" fill="#FFFFFF">AI courses</text>
<text x="415.3" y="224" class="t" font-size="11" fill="#9aa0ab">ANTHROPIC</text></g>
<g class="tile" style="animation-delay:0.55s">
<rect x="20.0" y="252" width="274.0" height="196" fill="#1c1e23"/><rect x="20.0" y="252" width="274.0" height="7" fill="#FFFFFF"/>
<svg x="122.0" y="277.0" width="70" height="44" viewBox="0 0 24 24" preserveAspectRatio="xMidYMid meet"><path fill="#FFFFFF" d="M16.412 4.412h-8.82a7.588 7.588 0 0 0-.008 15.176h8.828a7.588 7.588 0 0 0 0-15.176zm-.193 12.502H7.786a4.915 4.915 0 0 1 0-9.828h8.433a4.914 4.914 0 1 1 0 9.828z" /></svg>
<line x1="34.0" y1="342" x2="280.0" y2="342" stroke="#2a2c33"/>
<text x="34.0" y="372" class="big" font-size="19" fill="#FFFFFF">Full Stack</text>
<text x="34.0" y="395" class="big" font-size="19" fill="#FFFFFF">Development</text>
<text x="34.0" y="432" class="t" font-size="11" fill="#9aa0ab">ORACLE ONE · ALURA</text></g>
<g class="tile" style="animation-delay:0.70s">
<rect x="306.0" y="252" width="274.0" height="196" fill="#1c1e23"/><rect x="306.0" y="252" width="274.0" height="7" fill="#E5352B"/>
<svg x="423.0" y="275.0" width="40" height="48" viewBox="0 0 1000.0 1182.0" preserveAspectRatio="xMidYMid meet"><path d="M 483.4473,1173.8741 C 282.84918,1036.1764 107.82318,844.03685 33.399288,608.50967 C -13.096872,469.05688 4.4966184,320.96279 1,176.76589 C 1,118.17726 1,59.588629 1,1 C 333.69871,1 666.39742,1 999.09613,1 C 997.81307,155.23723 1001.0957,309.60684 995.76139,463.73712 C 973.93565,706.33874 826.44789,919.86418 644.26197,1073.4759 C 597.35038,1112.8125 548.34453,1150.2242 495.35525,1181 L 491.46101,1178.9067 L 483.44729,1173.8741 L 483.4473,1173.8741 z M 515,1140.5145 C 718.82369,1002.1917 897.08902,802.90776 955.83358,558.39874 C 985.15752,436.603 971.1665,310.4637 974.78518,186.47585 C 974.88922,132.65056 974.99325,78.825282 975.09729,25 C 658.39819,25 341.6991,25 25,25 C 25.875313,168.08398 22.747772,311.29619 27.354672,454.28027 C 48.166537,693.74113 195.26957,902.20963 371.43361,1056.9482 C 416.65091,1080.9283 463.10991,1163.7426 515,1140.5145 L 515,1140.5145 z M 262.78046,506.98019 C 211.91309,471.99862 145.23828,509.00516 90.550456,486.56446 C 77.635198,382.21177 85.312237,298.95502 84.751742,174.88413 C 117.74825,151.38991 162.437,155.73608 204.73125,156.39906 C 235.45483,155.20024 263.84355,167.54261 292.68203,155.4923 C 331.39249,156.68356 366.46064,147.77188 402.35083,154.1583 C 449.87974,175.23691 444.43511,211.30867 447.99034,265.09905 C 443.09356,337.27998 445.859,360.01303 443.86908,419.36253 C 433.79414,491.62908 384.60654,491.72131 336.99109,490.27923 C 305.18953,483.03764 289.50224,501.00995 262.78046,506.98019 z M 273.56415,489.53763 C 303.46712,458.86891 238.61595,444.64041 256.08068,485.15076 C 260.44999,489.39529 267.57194,493.14982 273.56415,489.53763 z M 236.87189,475.89481 C 230.21358,443.73919 140.63758,482.30979 112.30054,454.20426 C 105.37794,366.37865 109.46488,277.90794 110.54444,189.89022 C 79.236163,219.74767 97.34997,368.70266 95.390299,419.29613 C 98.251445,460.03368 106.30489,487.8431 151.07734,475.86323 C 179.5927,475.41685 208.58724,477.74496 236.87189,475.89481 z M 355.5,474.45926 C 406.27453,484.23256 430.18968,468.86189 425.04763,415.64872 C 435.76538,366.31284 432.43223,278.3519 432.9133,225.04355 C 416.55881,196.94399 432.8276,187.69543 412.64285,180 C 418.5217,268.77502 415.07231,358.05601 414.06353,447 C 394.43807,485.98767 308.25339,443.79835 294.25,473.84379 C 314.55812,477.23039 335.05998,474.07444 355.5,474.45926 z M 247.96481,454.06573 C 229.72257,429.24508 164.27166,441.80363 134.89245,440.44104 C 131.18219,470.81072 224.51127,447.66314 247.96481,454.06573 z M 349.55847,454.38943 C 375.744,464.48845 424.89155,442.79512 378.14489,434.03637 C 352.96385,452.04202 280.84654,423.47098 281.27684,454.10455 C 303.30336,457.58544 327.01461,453.40238 349.55847,454.38943 z M 126.96712,440.37421 C 144.73073,390.25509 129.77216,331.49249 134.80862,277.90863 C 128.454,249.75031 148.35435,185.2855 126.02107,178.56947 C 110.1357,230.00683 123.06616,287.95022 118.70256,341.83406 C 124.3755,368.3222 108.22545,430.76986 126.96712,440.37421 z M 404.86539,433.6622 C 407.13623,351.98333 405.93532,270.21744 406.5,188.5 C 388.80576,151.68234 387.01082,190.89455 389.34176,209.59186 C 389.92111,279.53727 386.49301,349.81214 390.5059,419.5 C 392.20711,423.15536 397.83593,438.38012 404.86539,433.6622 z M 255.45784,431.70468 C 251.79962,349.36843 261.48817,265.51337 253.41241,183.21222 C 228.06811,167.05904 167.77727,169.16536 146.62234,175.41211 C 144.63977,257.4191 145.96263,339.46339 146.86366,421.47955 C 178.90776,436.04164 221.60766,426.54239 255.45784,431.70468 z M 292,429.90247 C 332.64715,430.8121 398.66281,438.96243 378.59177,376.4181 C 377.30245,306.44601 381.21863,236.10435 378.17078,166.38664 C 341.47113,181.3824 254.05472,149.24325 267.1861,218.03594 C 264.51912,288.32055 266.5308,360.32376 267.16557,429.48336 C 273.24594,435.75126 284.64386,428.00148 292,429.90247 z" style="fill:#000000" />
  <path style="fill:#000000" d="M 732.51285,506.98019 C 681.64548,471.99862 614.97067,509.00516 560.28285,486.56446 C 547.3676,382.21177 555.04464,298.95502 554.48414,174.88413 C 587.48064,151.38991 632.16939,155.73608 674.46364,156.39906 C 705.18722,155.20024 733.57594,167.54261 762.41442,155.4923 C 801.12488,156.68356 836.19303,147.77188 872.08322,154.1583 C 919.61213,175.23691 914.1675,211.30867 917.72273,265.09905 C 912.82595,337.27998 915.59139,360.01303 913.60147,419.36253 C 903.52653,491.62908 854.33893,491.72131 806.72348,490.27923 C 774.92192,483.03764 759.23463,501.00995 732.51285,506.98019 z M 743.29654,489.53763 C 773.19951,458.86891 708.34834,444.64041 725.81307,485.15076 C 730.18238,489.39529 737.30433,493.14982 743.29654,489.53763 z M 706.60428,475.89481 C 699.94597,443.73919 610.36997,482.30979 582.03293,454.20426 C 575.11033,366.37865 579.19727,277.90794 580.27683,189.89022 C 548.96856,219.74767 567.08236,368.70266 565.12269,419.29613 C 567.98385,460.03368 576.03728,487.8431 620.80973,475.86323 C 649.32509,475.41685 678.31963,477.74496 706.60428,475.89481 z M 825.23239,474.45926 C 876.00692,484.23256 899.92207,468.86189 894.78002,415.64872 C 905.49777,366.31284 902.16462,278.3519 902.64569,225.04355 C 886.2912,196.94399 902.55999,187.69543 882.37524,180 C 888.25409,268.77502 884.8047,358.05601 883.79592,447 C 864.17046,485.98767 777.98578,443.79835 763.98239,473.84379 C 784.29051,477.23039 804.79237,474.07444 825.23239,474.45926 z M 717.6972,454.06573 C 699.45496,429.24508 634.00405,441.80363 604.62484,440.44104 C 600.91458,470.81072 694.24366,447.66314 717.6972,454.06573 z M 819.29086,454.38943 C 845.47639,464.48845 894.62394,442.79512 847.87728,434.03637 C 822.69624,452.04202 750.57893,423.47098 751.00923,454.10455 C 773.03575,457.58544 796.747,453.40238 819.29086,454.38943 z M 596.69951,440.37421 C 614.46312,390.25509 599.50455,331.49249 604.54101,277.90863 C 598.18639,249.75031 618.08674,185.2855 595.75346,178.56947 C 579.86809,230.00683 592.79855,287.95022 588.43495,341.83406 C 594.10789,368.3222 577.95784,430.76986 596.69951,440.37421 z M 874.59778,433.6622 C 876.86862,351.98333 875.66771,270.21744 876.23239,188.5 C 858.53815,151.68234 856.74321,190.89455 859.07415,209.59186 C 859.6535,279.53727 856.2254,349.81214 860.23829,419.5 C 861.9395,423.15536 867.56832,438.38012 874.59778,433.6622 z M 725.19023,431.70468 C 721.53201,349.36843 731.22056,265.51337 723.1448,183.21222 C 697.8005,167.05904 637.50966,169.16536 616.35473,175.41211 C 614.37216,257.4191 615.69502,339.46339 616.59605,421.47955 C 648.64015,436.04164 691.34005,426.54239 725.19023,431.70468 z M 761.73239,429.90247 C 802.37954,430.8121 868.3952,438.96243 848.32416,376.4181 C 847.03484,306.44601 850.95102,236.10435 847.90317,166.38664 C 811.20352,181.3824 723.78711,149.24325 736.91849,218.03594 C 734.25151,288.32055 736.26319,360.32376 736.89796,429.48336 C 742.97833,435.75126 754.37625,428.00148 761.73239,429.90247 z" />
  <path d="M 498.51285,998.9802 C 447.64548,963.99862 380.97067,1001.0052 326.28285,978.56446 C 313.3676,874.21177 321.04464,790.95502 320.48414,666.88413 C 353.48064,643.38991 398.16939,647.73608 440.46364,648.39906 C 471.18722,647.20024 499.57594,659.54261 528.41442,647.4923 C 567.12488,648.68356 602.19303,639.77188 638.08322,646.1583 C 685.61213,667.23691 680.1675,703.30867 683.72273,757.09905 C 678.82595,829.27998 681.59139,852.01303 679.60147,911.36253 C 669.52653,983.62908 620.33893,983.72131 572.72348,982.27923 C 540.92192,975.03764 525.23463,993.00995 498.51285,998.9802 z M 509.29654,981.53763 C 539.19951,950.86891 474.34834,936.64041 491.81307,977.15076 C 496.18238,981.39529 503.30433,985.14982 509.29654,981.53763 z M 472.60428,967.89481 C 465.94597,935.73919 376.36997,974.30979 348.03293,946.20426 C 341.11033,858.37865 345.19727,769.90794 346.27683,681.89022 C 314.96856,711.74767 333.08236,860.70266 331.12269,911.29613 C 333.98385,952.03368 342.03728,979.8431 386.80973,967.86323 C 415.32509,967.41685 444.31963,969.74496 472.60428,967.89481 z M 591.23239,966.45926 C 642.00692,976.23256 665.92207,960.86189 660.78002,907.64872 C 671.49777,858.31284 668.16462,770.3519 668.64569,717.04355 C 652.2912,688.94399 668.55999,679.69543 648.37524,672 C 654.25409,760.77502 650.8047,850.05601 649.79592,939 C 630.17046,977.98767 543.98578,935.79835 529.98239,965.84379 C 550.29051,969.23039 570.79237,966.07444 591.23239,966.45926 z M 483.6972,946.06573 C 465.45496,921.24508 400.00405,933.80363 370.62484,932.44104 C 366.91458,962.81072 460.24366,939.66314 483.6972,946.06573 z M 585.29086,946.38943 C 611.47639,956.48845 660.62394,934.79512 613.87728,926.03637 C 588.69624,944.04202 516.57893,915.47098 517.00923,946.10455 C 539.03575,949.58544 562.747,945.40238 585.29086,946.38943 z M 362.69951,932.37421 C 380.46312,882.25509 365.50455,823.49249 370.54101,769.90863 C 364.18639,741.75031 384.08674,677.2855 361.75346,670.56947 C 345.86809,722.00683 358.79855,779.95022 354.43495,833.83406 C 360.10789,860.3222 343.95784,922.76986 362.69951,932.37421 z M 640.59778,925.6622 C 642.86862,843.98333 641.66771,762.21744 642.23239,680.5 C 624.53815,643.68234 622.74321,682.89455 625.07415,701.59186 C 625.6535,771.53727 622.2254,841.81214 626.23829,911.5 C 627.9395,915.15536 633.56832,930.38012 640.59778,925.6622 z M 491.19023,923.70468 C 487.53201,841.36843 497.22056,757.51337 489.1448,675.21222 C 463.8005,659.05904 403.50966,661.16536 382.35473,667.41211 C 380.37216,749.4191 381.69502,831.46339 382.59605,913.47955 C 414.64015,928.04164 457.34005,918.54239 491.19023,923.70468 z M 527.73239,921.90247 C 568.37954,922.8121 634.3952,930.96243 614.32416,868.4181 C 613.03484,798.44601 616.95102,728.10435 613.90317,658.38664 C 577.20352,673.3824 489.78711,641.24325 502.91849,710.03594 C 500.25151,780.32055 502.26319,852.32376 502.89796,921.48336 C 508.97833,927.75126 520.37625,920.00148 527.73239,921.90247 z" style="fill:#000000" />
  <path style="fill:#b71313;fill-opacity:1;fill-rule:nonzero;stroke:#b71313;stroke-width:2.08098602000000010;stroke-opacity:1" d="M 473.54734,1137.3721 C 459.75665,1130.8478 447.04786,1120.7479 414.26338,1090.258 C 402.24569,1079.0815 387.8359,1066.8392 382.24138,1063.053 C 365.57372,1051.7727 311.9284,1001.0126 279.00521,965.36937 C 228.38325,910.56508 197.57585,871.57852 161.73549,816.96567 C 135.1027,776.38322 124.67527,758.15034 103.87012,715.78578 C 64.771285,636.17046 42.630677,563.83712 31.214326,478.41866 C 27.357801,449.56425 26.945828,431.2713 25.765223,236.50405 L 24.488018,25.804225 L 499.26833,25.804225 L 974.04859,25.804225 L 974.04859,212.60821 C 974.04859,318.12517 973.11423,413.88531 971.90122,432.67249 C 966.93245,509.62841 956.84737,561.12526 933.39612,629.29014 C 882.43735,777.40895 784.06436,916.7232 643.42613,1039.941 C 599.44012,1078.4787 526.12615,1133.9984 510.72644,1140.4328 C 499.87056,1144.9687 487.44229,1143.9456 473.54734,1137.3721 L 473.54734,1137.3721 z M 523.20174,991.15522 L 544.325,982.60482 L 583.86373,982.22263 C 619.92118,981.87408 624.48687,981.41123 635.7194,976.96568 C 650.38453,971.16156 663.48038,959.69814 669.72105,947.20259 C 678.65826,929.30713 680.19403,916.49897 682.01239,844.67218 C 685.50137,706.85939 682.77757,681.67311 662.18996,661.39651 C 658.02508,657.2943 649.93504,651.53234 644.21232,648.59203 L 633.80739,643.24598 L 582.14734,644.67502 C 545.69013,645.6834 526.7055,647.08064 517.63677,649.42283 C 506.47499,652.30564 501.48499,652.41077 479.66606,650.22328 C 445.0832,646.75608 379.52881,646.71053 360.56,650.14039 C 352.19693,651.65252 339.55515,655.78249 332.46669,659.3181 L 319.57852,665.74652 L 319.79182,800.99104 C 319.95435,904.01468 320.69809,941.42021 322.9133,957.99768 L 325.82148,979.75984 L 335.18592,982.66527 C 345.02731,985.71866 374.53778,986.61965 429.87639,985.55622 C 456.41354,985.04627 463.12951,985.5841 474.64735,989.14155 C 482.09998,991.44345 490.05726,994.73226 492.3299,996.45004 C 498.23033,1000.9095 499.74695,1000.6494 523.20174,991.15524 L 523.20174,991.15522 z M 301.89014,493.814 C 311.94546,490.16787 316.3686,489.83227 338.30739,491.05106 C 379.39709,493.33375 406.24056,486.89433 422.39254,470.88004 C 431.21072,462.13705 440.67879,442.35276 443.22092,427.35755 C 445.18621,415.76571 448.45523,289.32549 447.76538,251.5912 C 446.73425,195.19708 438.45755,174.13973 410.88219,157.75463 C 398.76378,150.55386 378.65958,149.64971 325.82148,153.92909 C 276.01189,157.96319 256.80446,158.25609 192.63838,155.96009 C 139.13973,154.04581 118.61295,156.47316 96.581735,167.31909 L 83.38662,173.81499 L 82.878818,245.99886 C 81.995793,371.52601 83.833158,443.026 88.865086,478.94994 C 90.067105,487.53134 90.435918,487.90001 100.79269,490.87174 C 114.21713,494.72369 133.43063,495.32291 177.03099,493.24939 C 216.77209,491.35942 231.90178,493.15333 250.61124,501.97378 L 263.3919,507.99911 L 276.91831,502.9817 C 284.35783,500.22211 295.59516,496.09664 301.89014,493.814 z M 758.66655,498.51275 L 777.39542,490.94129 L 814.85317,490.92293 C 848.97634,490.9062 853.60217,490.4591 866.81518,485.90039 C 885.73113,479.37423 900.52861,465.21553 907.32573,447.13938 C 913.69688,430.19618 915.22141,408.87188 916.69475,316.10176 C 918.36182,211.12761 916.02072,192.19293 898.98098,172.83477 C 879.87628,151.13075 864.21769,148.28667 795.0838,153.96389 C 750.68451,157.60994 744.21265,157.72916 653.57676,156.5707 C 593.83103,155.80706 587.09113,156.69845 563.95119,168.42428 L 554.26587,173.3322 L 552.80044,269.68882 C 551.47381,356.87577 553.16565,437.10724 556.93224,465.64461 C 560.0121,488.98056 559.15931,487.45335 570.9458,490.74018 C 585.53539,494.80876 601.85614,495.37094 646.29331,493.33569 C 688.29572,491.41196 706.85999,493.77149 722.89773,503.07223 C 732.82591,508.82994 733.29309,508.77038 758.66655,498.51272 L 758.66655,498.51275 z" />
  <path style="fill:#ffffff;fill-opacity:1;fill-rule:nonzero;stroke:#ffffff;stroke-width:2.08098602;stroke-opacity:1" d="M 269.03535,428.60144 C 268.26603,427.38735 267.45546,375.35783 267.23413,312.98028 C 266.86176,208.05743 267.11031,198.93214 270.55364,191.09273 C 276.937,176.55969 294.35531,171.76141 341.44261,171.56462 C 353.46779,171.51436 366.25295,170.62828 369.85389,169.59555 L 376.40088,167.71783 L 377.81075,195.08762 C 378.58592,210.141 378.91284,257.57403 378.53722,300.49437 C 378.1614,343.4147 378.61422,384.61822 379.54338,392.05775 C 381.02775,403.9464 380.70561,406.42017 376.88242,412.48893 C 369.92236,423.53734 357.0756,428.02284 329.98345,428.864 C 317.39349,429.25491 298.84441,429.85238 288.76339,430.19177 C 277.44286,430.57286 269.89929,429.96474 269.03537,428.60142 L 269.03535,428.60144 z" />
  <path style="fill:#ffffff;fill-opacity:1;fill-rule:nonzero;stroke:#ffffff;stroke-width:2.08098602;stroke-opacity:1" d="M 173.70578,427.44073 C 167.87105,426.58522 159.67717,424.75653 155.49717,423.377 L 147.89718,420.86881 L 147.38557,370.56626 C 146.89818,322.65499 147.9844,177.22908 148.83746,176.17675 C 149.05991,175.90235 158.76798,174.56013 170.41093,173.19409 C 199.50334,169.78079 237.4572,174.349 248.7773,182.62645 C 254.85638,187.07152 256.20453,221.15572 254.69484,332.2294 L 253.37258,429.51549 L 218.84351,429.25587 C 199.85251,429.11309 179.54055,428.29628 173.7058,427.44075 L 173.70578,427.44073 z" />
  <path style="fill:#ffffff;fill-opacity:1;fill-rule:nonzero;stroke:#ffffff;stroke-width:2.08098602;stroke-opacity:1" d="M 122.46212,431.59648 C 118.26301,421.19367 118.58462,214.091 122.82896,195.40458 C 126.48159,179.32334 128.40908,177.35431 131.84739,186.19195 C 134.05355,191.86255 134.52843,215.27964 134.16532,300.49437 C 133.73372,401.79114 132.82254,419.79404 127.42484,433.67746 L 125.40225,438.87993 L 122.46212,431.59648 z" />
  <path style="fill:#ffffff;fill-opacity:1;fill-rule:nonzero;stroke:#ffffff;stroke-width:2.08098602;stroke-opacity:1" d="M 116.68239,472.90596 C 107.27034,466.57619 100.65137,452.97807 98.094154,434.71796 C 96.97217,426.70616 95.424145,383.62975 94.654139,338.99261 C 93.202193,254.81931 94.508595,229.64533 101.3812,209.36932 C 109.18579,186.34355 109.41984,189.03229 108.83783,295.04847 C 108.52924,351.26491 108.99744,410.37042 109.87832,426.39401 L 111.47993,455.52782 L 120.84437,460.39986 C 130.0149,465.17106 131.09909,465.24889 173.20536,464.15858 C 218.55862,462.9842 229.54735,464.27728 233.26634,471.22625 C 235.39392,475.20173 234.49943,475.29718 195.10655,475.29718 C 172.92044,475.29718 147.83758,475.86126 139.36697,476.55071 C 125.48428,477.68064 123.24776,477.3213 116.68239,472.90596 z" />
  <path style="fill:#ffffff;fill-opacity:1;fill-rule:nonzero;stroke:#ffffff;stroke-width:2.08098602;stroke-opacity:1" d="M 259.27425,484.89513 C 252.33352,477.95439 252.21185,468.25883 259.00957,463.80477 C 265.44918,459.58539 273.98119,461.65106 278.48123,468.51902 C 281.66785,473.38238 281.62681,474.19994 277.8415,481.26959 C 272.75711,490.76553 266.38827,492.00914 259.27425,484.89513 z" />
  <path style="fill:#ffffff;fill-opacity:1;fill-rule:nonzero;stroke:#ffffff;stroke-width:2.08098602;stroke-opacity:1" d="M 303.45088,473.59825 C 296.23798,472.76829 296.18116,470.58102 303.27504,466.80464 C 307.63553,464.48321 317.06989,463.99591 347.39194,464.52588 C 390.69996,465.28281 400.25398,463.68085 409.40324,454.12815 L 415.30387,447.96722 L 415.30387,315.07049 C 415.30387,191.14904 415.53819,182.38574 418.77329,185.31392 C 420.68135,187.04105 422.89219,193.29558 423.68629,199.21284 C 424.4804,205.13011 426.53766,213.24903 428.25801,217.25493 C 430.86153,223.31763 431.32018,236.17894 430.99388,293.9901 C 430.77829,332.18857 429.69847,371.51919 428.5943,381.39151 C 427.49033,391.26385 425.79392,410.1103 424.8248,423.27254 C 422.48203,455.08835 419.16764,463.00043 404.90394,470.82802 C 399.6482,473.71218 391.55108,474.25669 353.91479,474.25669 C 329.30713,474.25669 306.59837,473.96038 303.45088,473.59822 L 303.45088,473.59825 z" />
  <path style="fill:#ffffff;fill-opacity:1;fill-rule:nonzero;stroke:#ffffff;stroke-width:2.08098602;stroke-opacity:1" d="M 359.4962,455.23003 C 358.55997,454.28451 341.55935,453.78611 321.71715,454.12251 C 299.98188,454.49101 285.14497,453.93247 284.39409,452.71753 C 281.83853,448.58253 285.93383,444.05547 294.30037,441.7668 C 299.70573,440.28815 312.26177,439.81579 327.90246,440.50262 C 341.63697,441.10571 357.55651,440.71134 363.27923,439.62617 C 369.00194,438.54098 376.02526,437.20124 378.88662,436.64893 C 385.048,435.45958 394.20434,439.7524 395.06753,444.23526 C 395.43379,446.13624 392.77803,448.78798 388.43314,450.85987 C 379.83513,454.95998 361.9091,457.66722 359.4962,455.23003 z" />
  <path style="fill:#ffffff;fill-opacity:1;fill-rule:nonzero;stroke:#ffffff;stroke-width:2.08098602;stroke-opacity:1" d="M 396.10282,428.05693 C 390.83543,420.03315 389.76914,396.6689 389.51213,283.63676 C 389.2851,183.80972 390.2128,170.35513 396.93896,175.93731 C 405.31431,182.8882 405.93944,187.96753 405.93944,249.0679 C 405.93944,332.47057 403.5001,433.67746 401.48987,433.67746 C 400.55634,433.67746 398.13199,431.14823 396.10282,428.05695 L 396.10282,428.05693 z" />
  <path style="fill:#ffffff;fill-opacity:1;fill-rule:nonzero;stroke:#ffffff;stroke-width:2.08098602;stroke-opacity:1" d="M 144.70343,452.50725 C 139.27799,450.30806 134.37129,444.42909 136.32734,442.47136 C 137.1574,441.64063 157.19024,440.96092 180.84483,440.96092 C 222.29341,440.96092 224.23054,441.14614 234.2581,446.06834 L 244.66303,451.17577 L 223.85317,452.58713 C 194.40909,454.58405 149.71584,454.53893 144.70345,452.50722 L 144.70343,452.50725 z" />
  <path style="fill:#ffffff;fill-opacity:1;fill-rule:nonzero;stroke:#ffffff;stroke-width:2.08098602;stroke-opacity:1" d="M 681.67007,429.2468 C 652.11216,428.31707 636.94989,426.95628 629.352,424.55136 L 618.65365,421.16506 L 617.15763,381.11929 C 615.44415,335.24908 616.48027,178.74115 618.51111,176.71102 C 619.25444,175.96788 629.39945,174.32334 641.05547,173.05652 C 670.12351,169.89727 707.94106,174.48143 718.89662,182.49227 C 724.24725,186.40477 725.61342,225.70893 724.33028,338.82565 L 723.28979,430.55599 L 681.67007,429.2468 z" />
  <path style="fill:#ffffff;fill-opacity:1;fill-rule:nonzero;stroke:#ffffff;stroke-width:2.08098602;stroke-opacity:1" d="M 738.85931,429.85424 C 737.48981,429.39477 736.79643,389.12197 736.85095,313.21358 C 736.94355,184.57404 736.657,187.35482 750.64913,179.28097 C 758.51027,174.7449 784.30201,171.51063 812.78592,171.48903 C 824.23883,171.48034 836.61508,170.61125 840.28864,169.55769 L 846.96778,167.64214 L 847.86094,276.20822 C 848.35205,335.91957 849.36611,388.98829 850.11423,394.13873 C 852.85738,413.02532 838.87316,425.95626 813.15841,428.31031 C 797.96264,429.70143 741.87757,430.86686 738.85931,429.85424 z" />
  <path style="fill:#ffffff;fill-opacity:1;fill-rule:nonzero;stroke:#ffffff;stroke-width:2.08098602;stroke-opacity:1" d="M 866.48056,428.16083 C 860.64277,419.2512 859.95479,405.08297 859.77,289.96693 C 859.62621,200.38637 860.11087,179.88644 862.44781,176.69027 C 865.13333,173.01773 865.6055,173.27005 870.4646,180.97475 L 875.62774,189.16162 L 874.6014,311.41954 C 874.03682,378.6614 872.79198,433.67746 871.83514,433.67746 C 870.8781,433.67746 868.46873,431.19499 866.48056,428.16085 L 866.48056,428.16083 z" />
  <path style="fill:#ffffff;fill-opacity:1;fill-rule:nonzero;stroke:#ffffff;stroke-width:2.08098602;stroke-opacity:1" d="M 824.21761,454.71213 C 821.35625,453.79456 806.26785,453.50246 790.68793,454.06303 C 775.108,454.62361 759.87019,454.45717 756.82613,453.69316 C 752.11103,452.50972 751.61159,451.70575 753.45368,448.26389 C 756.99385,441.64901 770.66884,439.28936 798.20528,440.54201 C 813.11804,441.22037 827.36843,440.75833 833.58204,439.39495 C 839.30475,438.13924 847.61267,437.18898 852.04413,437.28321 C 860.50084,437.46303 867.32419,442.07412 864.91108,445.97848 C 860.60989,452.93807 835.49447,458.32837 824.21761,454.71213 z" />
  <path style="fill:#ffffff;fill-opacity:1;fill-rule:nonzero;stroke:#ffffff;stroke-width:2.08098602;stroke-opacity:1" d="M 772.19296,473.18057 L 764.90951,472.10445 L 771.08254,467.97811 C 776.81275,464.14793 780.20142,463.90014 818.2972,464.52592 C 855.55538,465.13789 860.19764,464.82015 868.6556,461.07885 C 885.29579,453.71815 884.51771,458.75081 885.78982,350.21274 C 886.41203,297.11541 886.15732,237.51803 885.22358,217.77407 C 884.28963,198.03007 884.20639,181.87644 885.03837,181.87707 C 888.13342,181.87931 892.48497,191.56741 893.90649,201.62013 C 894.7135,207.32777 896.79906,214.75354 898.54085,218.12187 C 901.2711,223.402 901.55641,235.02208 900.60935,302.4292 C 900.00524,345.42991 898.45553,387.16743 897.16553,395.17923 C 895.87573,403.19102 894.54078,417.82466 894.1995,427.69842 C 893.44139,449.62506 887.53826,463.55087 876.24225,470.05982 C 869.55646,473.91237 865.28794,474.25669 824.21761,474.25669 C 799.60995,474.25669 776.19886,473.77242 772.19296,473.18055 L 772.19296,473.18057 z" />
  <path style="fill:#ffffff;fill-opacity:1;fill-rule:nonzero;stroke:#ffffff;stroke-width:2.08098602;stroke-opacity:1" d="M 728.49225,485.70211 C 723.17825,480.38821 722.98701,468.83389 728.13578,464.17429 C 732.84255,459.91478 735.35867,459.86973 743.16258,463.9052 C 747.89786,466.35402 749.30211,468.51242 749.30211,473.34285 C 749.30211,487.5252 737.39013,494.59991 728.49225,485.70211 z" />
  <path style="fill:#ffffff;fill-opacity:1;fill-rule:nonzero;stroke:#ffffff;stroke-width:2.08098602;stroke-opacity:1" d="M 615.00631,452.50725 C 609.58076,450.30806 604.67401,444.42909 606.63013,442.47136 C 607.46024,441.64063 627.49306,440.96092 651.14763,440.96092 C 692.61481,440.96092 694.5289,441.14419 704.56092,446.07483 L 714.96585,451.18873 L 693.11549,452.58301 C 662.02744,454.5668 619.98673,454.52599 615.00631,452.50722 L 615.00631,452.50725 z" />
  <path style="fill:#ffffff;fill-opacity:1;fill-rule:nonzero;stroke:#ffffff;stroke-width:2.08098602;stroke-opacity:1" d="M 591.45226,431.07623 C 590.11918,426.78043 589.5698,383.6958 589.94604,312.98028 C 590.42217,223.50582 591.13449,199.40042 593.5734,190.20211 L 596.6079,178.75669 L 601.31259,186.04014 C 605.85746,193.07641 605.96401,194.34758 604.45238,223.49789 C 603.59169,240.09375 603.00006,265.37773 603.13741,279.68451 C 603.83683,352.44947 603.73007,404.58844 602.87291,408.99169 C 599.25262,427.58798 596.50385,437.83944 595.1381,437.83944 C 594.26512,437.83944 592.60658,434.79599 591.45226,431.07623 z" />
  <path style="fill:#ffffff;fill-opacity:1;fill-rule:nonzero;stroke:#ffffff;stroke-width:2.08098602;stroke-opacity:1" d="M 587.51836,474.09431 C 570.25513,465.22923 567.10326,448.76207 564.2494,352.51901 C 561.44673,258.00259 564.07917,220.37056 574.87616,200.60704 C 578.8342,193.36126 578.84876,193.74324 577.64595,274.48204 C 576.23983,368.85409 579.16861,451.37515 584.11803,456.84727 C 590.5901,464.00294 604.12962,465.60106 646.68495,464.23208 C 689.04696,462.86931 696.65421,463.89421 703.25489,471.85336 C 705.89649,475.03852 702.92651,475.29829 663.71616,475.31198 C 640.39913,475.32012 615.2346,475.8294 607.79507,476.44372 C 597.56078,477.28883 592.62572,476.717 587.51836,474.09431 z" />
  <path style="fill:#ffffff;fill-opacity:1;fill-rule:nonzero;stroke:#ffffff;stroke-width:2.08098602;stroke-opacity:1" d="M 441.3162,920.58676 C 412.99877,919.63985 398.22168,918.27745 392.41303,916.07807 L 384.08908,912.92634 L 383.55198,791.51889 C 383.20675,713.5293 383.75072,669.37538 385.07256,668.05341 C 386.2042,666.92152 400.14264,665.58025 416.04658,665.07267 C 445.81321,664.12266 466.30426,666.3711 480.82288,672.18034 L 488.72501,675.34211 L 490.24392,704.68332 C 491.07965,720.82108 491.07111,776.47867 490.22519,828.36691 C 488.83176,913.82859 488.36729,922.67313 485.29118,922.32642 C 483.42349,922.11587 463.63477,921.33306 441.3162,920.58676 z" />
  <path style="fill:#ffffff;fill-opacity:1;fill-rule:nonzero;stroke:#ffffff;stroke-width:2.08098602;stroke-opacity:1" d="M 504.48286,920.13714 C 503.89394,919.18446 503.31772,866.69852 503.20201,803.50165 C 502.96499,673.75411 502.33736,679.07336 518.87579,670.60718 C 526.45474,666.72743 532.82235,665.87714 564.72553,664.48479 C 585.10234,663.59551 604.45363,662.27932 607.72869,661.55999 L 613.68343,660.25217 L 614.44278,779.51499 C 615.04647,874.32659 614.64734,899.94689 612.49623,904.48011 C 609.11775,911.59931 596.97582,917.94368 583.64544,919.55515 C 567.03293,921.56336 505.64322,922.01465 504.48286,920.1371 L 504.48286,920.13714 z" />
  <path style="fill:#ffffff;fill-opacity:1;fill-rule:nonzero;stroke:#ffffff;stroke-width:2.08098602;stroke-opacity:1" d="M 555.25018,946.12343 C 524.60912,945.60955 518.31268,944.98823 518.31268,942.47848 C 518.31268,940.81442 520.63839,937.92911 523.48101,936.06661 C 527.77242,933.25466 534.44968,932.72561 562.84349,932.94761 C 587.64863,933.14162 599.40537,932.39933 605.65977,930.24445 C 614.95574,927.04173 626.14187,928.67946 630.45326,933.87433 C 635.43701,939.87927 617.95652,948.00535 601.76188,947.21193 C 596.49594,946.95395 575.5658,946.46411 555.25018,946.12341 L 555.25018,946.12343 z" />
  <path style="fill:#ffffff;fill-opacity:1;fill-rule:nonzero;stroke:#ffffff;stroke-width:2.08098602;stroke-opacity:1" d="M 570.33732,966.61167 C 548.13924,965.8544 533.96814,964.55685 534.04326,963.28838 C 534.39454,957.35855 544.84088,955.9928 585.94472,956.50281 C 623.99471,956.9749 628.26698,956.66335 635.75416,952.87034 C 652.54001,944.36656 651.56757,952.03626 651.72177,826.94832 C 651.79731,765.73479 651.18092,706.52073 650.35186,695.36144 C 649.36214,682.03776 649.56941,675.07183 650.95576,675.07183 C 655.05551,675.07183 657.92644,681.04422 659.99202,693.87033 C 661.14094,701.00479 663.58859,709.75712 665.43089,713.32002 C 668.40212,719.06573 668.62541,727.91487 667.40678,791.59953 C 666.65097,831.09034 665.08649,870.42438 663.93008,879.00845 C 662.77368,887.59252 661.08267,904.91673 660.17203,917.50669 C 658.21174,944.60722 654.44099,954.09344 642.6776,961.51944 C 632.86283,967.71512 623.01311,968.4085 570.33732,966.61163 L 570.33732,966.61167 z" />
  <path style="fill:#ffffff;fill-opacity:1;fill-rule:nonzero;stroke:#ffffff;stroke-width:2.08098602;stroke-opacity:1" d="M 630.98204,918.53372 C 627.81811,913.33109 626.9597,905.88353 625.88529,874.31283 C 624.51579,834.0702 626.03304,671.30664 627.80437,668.44054 C 629.84041,665.14597 632.87803,666.82975 636.95176,673.51109 C 640.9048,679.99459 641.07524,684.23325 641.07461,775.99965 C 641.07399,876.07426 639.60148,924.79014 636.57719,924.79014 C 635.59226,924.79014 633.07468,921.97477 630.98204,918.53378 L 630.98204,918.53372 z" />
  <path style="fill:#ffffff;fill-opacity:1;fill-rule:nonzero;stroke:#ffffff;stroke-width:2.08098602;stroke-opacity:1" d="M 494.95007,977.33504 C 489.54013,971.17438 488.54001,964.57326 492.1757,959.02452 C 496.35661,952.6436 506.16471,952.18087 512.06972,958.08592 C 517.16626,963.18248 517.30298,967.07552 512.66155,974.93297 C 508.50665,981.96679 500.02705,983.11678 494.95007,977.33504 z" />
  <path style="fill:#ffffff;fill-opacity:1;fill-rule:nonzero;stroke:#ffffff;stroke-width:2.08098602;stroke-opacity:1" d="M 385.66273,945.7928 C 377.87505,943.78209 372.64366,939.96527 372.64366,936.294 C 372.64366,934.43809 381.88116,933.36378 406.45968,932.36125 C 441.96671,930.91294 458.16989,932.44428 471.69256,938.52621 L 479.81444,942.17915 L 465.24754,943.68399 C 439.4712,946.34678 392.61676,947.58832 385.66273,945.7928 z" />
  <path style="fill:#ffffff;fill-opacity:1;fill-rule:nonzero;stroke:#ffffff;stroke-width:2.08098602;stroke-opacity:1" d="M 358.00517,924.65627 C 354.98442,919.01214 353.66861,737.76093 356.4282,707.46606 C 358.28819,687.04774 361.43568,672.99085 364.14741,672.99085 C 367.03187,672.99085 370.50462,683.87211 370.45675,692.76021 C 369.36923,894.75007 369.17986,905.49688 366.53035,915.4257 C 363.01286,928.60729 361.18118,930.59068 358.00517,924.65627 z" />
  <path style="fill:#ffffff;fill-opacity:1;fill-rule:nonzero;stroke:#ffffff;stroke-width:2.08098602;stroke-opacity:1" d="M 362.78083,968.4408 C 344.37659,965.80306 336.2185,951.3804 333.25622,916.24438 C 329.83695,875.68616 328.28266,759.59557 330.8352,735.42042 C 333.07122,714.24356 337.51912,696.30902 342.2492,689.3979 C 343.9425,686.92363 344.5772,718.52756 344.6517,809.05459 C 344.71142,881.49798 345.5871,935.49573 346.782,940.39754 C 348.42556,947.14149 350.38127,949.51148 357.08538,952.88345 C 364.74549,956.73629 368.79217,956.99908 411.56497,956.42148 C 450.40865,955.89688 458.77983,956.31989 464.10986,959.07615 C 467.59718,960.87943 470.45,963.13988 470.45,964.09947 C 470.45,967.32891 451.18174,968.52133 419.61443,967.24537 C 402.36451,966.54816 384.50528,966.81636 379.92711,967.84143 C 375.34894,968.86653 367.63306,969.13622 362.78083,968.44078 L 362.78083,968.4408 z" />
</svg>
<line x1="320.0" y1="342" x2="566.0" y2="342" stroke="#2a2c33"/>
<text x="320.0" y="372" class="big" font-size="19" fill="#FFFFFF">CS50</text>
<text x="320.0" y="395" class="big" font-size="19" fill="#9aa0ab">in progress<tspan class="cur" fill="#F5C518">_</tspan></text>
<text x="320.0" y="432" class="t" font-size="11" fill="#9aa0ab">HARVARD UNIVERSITY</text></g>
</svg>